<?xml version="1.0" encoding="utf-8"?>
<!-- Generator: Adobe Illustrator 19.1.0, SVG Export Plug-In . SVG Version: 6.00 Build 0)  -->
<svg version="1.1" id="Layer_1" xmlns="http://www.w3.org/2000/svg" xmlns:xlink="http://www.w3.org/1999/xlink" x="0px" y="0px"
	 viewBox="-287 163 27.7 448" style="enable-background:new -287 163 27.7 448;" xml:space="preserve">
<style type="text/css">
	.st0{fill:#CB6120;}
	.st1{fill:#727176;}
	.st2{fill:#BF0411;}
	.st3{fill:#A3BD31;}
	.st4{fill:#5FA199;}
	.st5{fill:#513E8C;}
	.st6{fill:#76AADB;}
	.st7{fill:#C64832;}
	.st8{fill:#E6B54A;}
	.st9{fill:#70A83B;}
	.st10{fill:#C3B325;}
	.st11{fill:#BC9E6C;}
	.st12{fill:#20A19A;}
</style>
<g id="bg">
</g>
<g id="Capa_3">
</g>
<g>
	<path class="st0" d="M-273.8,529.4c-0.3-0.2-0.7-0.2-1.1,0l-4.1,2.4c-0.3,0.2-0.5,0.6-0.5,0.9v4.3c0,0.6,0.5,1.1,1.1,1.1h4.1
		c0.6,0,1.1-0.5,1.1-1.1v-6.6C-273.2,530-273.5,529.6-273.8,529.4z"/>
	<path class="st0" d="M-281.2,533.6c-0.3-0.2-0.7-0.2-1.1,0l-4.2,2.4c-0.4,0.2-0.6,0.7-0.5,1.2c0.1,0.5,0.6,0.8,1.1,0.8h4.2
		c0.6,0,1.1-0.5,1.1-1.1v-2.4C-280.6,534.2-280.8,533.8-281.2,533.6z"/>
	<path class="st1" d="M-266.3,525.1c-0.3-0.2-0.7-0.2-1.1,0l-4.2,2.4c-0.3,0.2-0.5,0.6-0.5,0.9v8.5c0,0.6,0.5,1.1,1.1,1.1h4.2
		c0.6,0,1.1-0.5,1.1-1.1v-10.9C-265.8,525.7-266,525.3-266.3,525.1z"/>
</g>
<g>
	<path class="st2" d="M-273.8,548.4c-0.3-0.2-0.7-0.2-1.1,0l-4.1,2.4c-0.3,0.2-0.5,0.6-0.5,0.9v4.3c0,0.6,0.5,1.1,1.1,1.1h4.1
		c0.6,0,1.1-0.5,1.1-1.1v-6.6C-273.2,549-273.5,548.6-273.8,548.4z"/>
	<path class="st2" d="M-281.2,552.6c-0.3-0.2-0.7-0.2-1.1,0l-4.2,2.4c-0.4,0.2-0.6,0.7-0.5,1.2c0.1,0.5,0.6,0.8,1.1,0.8h4.2
		c0.6,0,1.1-0.5,1.1-1.1v-2.4C-280.6,553.2-280.8,552.8-281.2,552.6z"/>
	<path class="st2" d="M-266.3,544.1c-0.3-0.2-0.7-0.2-1.1,0l-4.2,2.4c-0.3,0.2-0.5,0.6-0.5,0.9v8.5c0,0.6,0.5,1.1,1.1,1.1h4.2
		c0.6,0,1.1-0.5,1.1-1.1v-10.9C-265.8,544.7-266,544.3-266.3,544.1z"/>
</g>
<g>
	<path class="st0" d="M-273.8,566.4c-0.3-0.2-0.7-0.2-1.1,0l-4.1,2.4c-0.3,0.2-0.5,0.6-0.5,0.9v4.3c0,0.6,0.5,1.1,1.1,1.1h4.1
		c0.6,0,1.1-0.5,1.1-1.1v-6.6C-273.2,567-273.5,566.6-273.8,566.4z"/>
	<path class="st3" d="M-281.2,570.6c-0.3-0.2-0.7-0.2-1.1,0l-4.2,2.4c-0.4,0.2-0.6,0.7-0.5,1.2c0.1,0.5,0.6,0.8,1.1,0.8h4.2
		c0.6,0,1.1-0.5,1.1-1.1v-2.4C-280.6,571.2-280.8,570.8-281.2,570.6z"/>
	<path class="st2" d="M-266.3,562.1c-0.3-0.2-0.7-0.2-1.1,0l-4.2,2.4c-0.3,0.2-0.5,0.6-0.5,0.9v8.5c0,0.6,0.5,1.1,1.1,1.1h4.2
		c0.6,0,1.1-0.5,1.1-1.1v-10.9C-265.8,562.7-266,562.3-266.3,562.1z"/>
</g>
<g>
	<path class="st1" d="M-273.8,510.4c-0.3-0.2-0.7-0.2-1.1,0l-4.1,2.4c-0.3,0.2-0.5,0.6-0.5,0.9v4.3c0,0.6,0.5,1.1,1.1,1.1h4.1
		c0.6,0,1.1-0.5,1.1-1.1v-6.6C-273.2,511-273.5,510.6-273.8,510.4z"/>
	<path class="st3" d="M-281.2,514.6c-0.3-0.2-0.7-0.2-1.1,0l-4.2,2.4c-0.4,0.2-0.6,0.7-0.5,1.2c0.1,0.5,0.6,0.8,1.1,0.8h4.2
		c0.6,0,1.1-0.5,1.1-1.1v-2.4C-280.6,515.2-280.8,514.8-281.2,514.6z"/>
	<path class="st1" d="M-266.3,506.1c-0.3-0.2-0.7-0.2-1.1,0l-4.2,2.4c-0.3,0.2-0.5,0.6-0.5,0.9v8.5c0,0.6,0.5,1.1,1.1,1.1h4.2
		c0.6,0,1.1-0.5,1.1-1.1v-10.9C-265.8,506.7-266,506.3-266.3,506.1z"/>
</g>
<g>
	<g>
		<path class="st4" d="M-275.6,416.9l-0.8-2.3l0.8-2.4c0-0.1,0-0.3-0.1-0.4c-0.1-0.1-0.2-0.2-0.3-0.2h-4.2c-0.3,0-0.2-0.1-0.2-0.1
			c0-0.9-0.6-1.3-1.2-1.3h-3.5c0.1-0.1,0.1-0.3,0.1-0.4c0-0.4-0.3-0.8-0.8-0.8h-0.5c-0.4,0-0.8,0.3-0.8,0.8c0,0.3,0.1,0.5,0.4,0.6
			V422h1.3v-5.3h3.8c0.1,0,0.2,0,0.2,0.2v0c0,0.3,0.2,0.5,0.5,0.5h0h0h4.9c0.2,0,0.4-0.2,0.4-0.4
			C-275.6,417-275.6,416.9-275.6,416.9L-275.6,416.9z"/>
	</g>
</g>
<g>
	<path class="st4" d="M-282.7,434c-2.4,0-4.3,1.9-4.3,4.3c0,1,0.6,2.5,1.9,4.8c0.9,1.6,1.8,2.9,1.8,3l0.6,1l0.6-1
		c0-0.1,0.9-1.4,1.8-3c1.3-2.2,1.9-3.8,1.9-4.8C-278.4,435.9-280.3,434-282.7,434L-282.7,434z M-282.7,440.5c-1.2,0-2.2-1-2.2-2.2
		c0-1.2,1-2.2,2.2-2.2c1.2,0,2.2,1,2.2,2.2S-281.5,440.5-282.7,440.5L-282.7,440.5z"/>
</g>
<g>
	<path class="st4" d="M-280.5,460c-3.6,0-6.5,2.9-6.5,6.5s2.9,6.5,6.5,6.5c3.6,0,6.5-2.9,6.5-6.5S-276.9,460-280.5,460z
		 M-280.5,471.7c-2.9,0-5.2-2.3-5.2-5.2s2.3-5.2,5.2-5.2c2.9,0,5.2,2.3,5.2,5.2S-277.6,471.7-280.5,471.7z"/>
	<polygon class="st4" points="-280.2,463.2 -281.1,463.2 -281.1,467.1 -277.8,469.2 -277.2,468.4 -280.2,466.6 	"/>
</g>
<g>
	<g>
		<path class="st4" d="M-273.8,490.4c-0.3-0.2-0.7-0.2-1.1,0l-4.1,2.4c-0.3,0.2-0.5,0.6-0.5,0.9v4.2c0,0.6,0.5,1.1,1.1,1.1h4.1
			c0.6,0,1.1-0.5,1.1-1.1v-6.6C-273.2,490.9-273.5,490.6-273.8,490.4z"/>
		<path class="st4" d="M-281.2,494.6c-0.3-0.2-0.7-0.2-1.1,0l-4.2,2.4c-0.4,0.2-0.6,0.7-0.5,1.2c0.1,0.5,0.6,0.8,1.1,0.8h4.2
			c0.6,0,1.1-0.5,1.1-1.1v-2.4C-280.6,495.1-280.8,494.8-281.2,494.6z"/>
		<path class="st4" d="M-266.3,486.1c-0.3-0.2-0.7-0.2-1.1,0l-4.2,2.4c-0.3,0.2-0.5,0.6-0.5,0.9v8.4c0,0.6,0.5,1.1,1.1,1.1h4.2
			c0.6,0,1.1-0.5,1.1-1.1v-10.8C-265.8,486.7-266,486.3-266.3,486.1z"/>
	</g>
</g>
<g>
	<path class="st4" d="M-282.4,390.2c0-0.2-0.1-0.3-0.3-0.3h-1c-0.2,0-0.3,0.1-0.3,0.3v1c0,0.2,0.1,0.3,0.3,0.3h1
		c0.2,0,0.3-0.1,0.3-0.3V390.2z"/>
	<path class="st4" d="M-279.8,390.2c0-0.2-0.1-0.3-0.3-0.3h-1c-0.2,0-0.3,0.1-0.3,0.3v1c0,0.2,0.1,0.3,0.3,0.3h1
		c0.2,0,0.3-0.1,0.3-0.3V390.2z"/>
	<path class="st4" d="M-277.3,390.2c0-0.2-0.1-0.3-0.3-0.3h-1c-0.2,0-0.3,0.1-0.3,0.3v1c0,0.2,0.1,0.3,0.3,0.3h1
		c0.2,0,0.3-0.1,0.3-0.3V390.2z"/>
	<path class="st4" d="M-282.4,392.7c0-0.2-0.1-0.3-0.3-0.3h-1c-0.2,0-0.3,0.1-0.3,0.3v1c0,0.2,0.1,0.3,0.3,0.3h1
		c0.2,0,0.3-0.1,0.3-0.3V392.7z"/>
	<path class="st4" d="M-279.8,392.7c0-0.2-0.1-0.3-0.3-0.3h-1c-0.2,0-0.3,0.1-0.3,0.3v1c0,0.2,0.1,0.3,0.3,0.3h1
		c0.2,0,0.3-0.1,0.3-0.3V392.7z"/>
	<g>
		<path class="st4" d="M-277.3,392.7c0-0.2-0.1-0.3-0.3-0.3h-1c-0.2,0-0.3,0.1-0.3,0.3v1c0,0.2,0.1,0.3,0.3,0.3h1
			c0.2,0,0.3-0.1,0.3-0.3V392.7z"/>
		<path class="st4" d="M-275.4,384.4v1.6c0,0.7-0.6,1.3-1.3,1.3h-0.8c-0.7,0-1.3-0.6-1.3-1.3v-1.6h-3.7v1.6c0,0.7-0.6,1.3-1.3,1.3
			h-0.8c-0.7,0-1.3-0.6-1.3-1.3v-1.6c-0.6,0-1.1,0.5-1.1,1.2v9.2c0,0.6,0.5,1.2,1.2,1.2h10.4c0.6,0,1.2-0.5,1.2-1.2v-9.2
			C-274.3,385-274.8,384.5-275.4,384.4L-275.4,384.4z M-275.8,394.2c0,0.3-0.2,0.5-0.5,0.5h-8.7c-0.3,0-0.5-0.2-0.5-0.5v-4.8
			c0-0.3,0.2-0.5,0.5-0.5h8.7c0.3,0,0.5,0.2,0.5,0.5L-275.8,394.2L-275.8,394.2z"/>
	</g>
	<path class="st4" d="M-284.6,386.5h0.8c0.2,0,0.4-0.2,0.4-0.4v-2.6c0-0.2-0.2-0.4-0.4-0.4h-0.8c-0.2,0-0.4,0.2-0.4,0.4v2.6
		C-285,386.3-284.8,386.5-284.6,386.5L-284.6,386.5z"/>
	<path class="st4" d="M-277.5,386.5h0.8c0.2,0,0.4-0.2,0.4-0.4v-2.6c0-0.2-0.2-0.4-0.4-0.4h-0.8c-0.2,0-0.4,0.2-0.4,0.4v2.6
		C-278,386.3-277.8,386.5-277.5,386.5L-277.5,386.5z"/>
</g>
<g>
	<path class="st5" d="M-268.5,167.2c1.2,0,2.1-0.9,2.1-2.1c0-1.2-0.9-2.1-2.1-2.1c-1.2,0-2.1,0.9-2.1,2.1
		C-270.6,166.2-269.7,167.2-268.5,167.2L-268.5,167.2z M-265.1,175.5c-3.2,0-5.8,2.5-5.8,5.8c0,3.2,2.5,5.8,5.8,5.8
		c3.2,0,5.8-2.5,5.8-5.8C-259.3,178-261.8,175.5-265.1,175.5L-265.1,175.5z M-265.1,185.3c-2.2,0-4-1.8-4-4c0-2.2,1.8-4,4-4
		c2.2,0,4,1.8,4,4C-261,183.4-262.9,185.3-265.1,185.3L-265.1,185.3z M-269.9,173.2h4.8v-2.1h-3.7l-2.2-3.8
		c-0.3-0.6-0.9-0.9-1.7-0.9c-0.6,0-1,0.2-1.4,0.6l-4.3,4.3c-0.3,0.3-0.6,0.8-0.6,1.4c0,0.7,0.3,1.4,0.9,1.7l3.9,2.3v5.8h2.1v-7.5
		l-2.5-2l2.7-2.7L-269.9,173.2z M-281.2,175.5c-3.2,0-5.8,2.5-5.8,5.8c0,3.2,2.5,5.8,5.8,5.8s5.8-2.5,5.8-5.8
		C-275.5,178-278,175.5-281.2,175.5L-281.2,175.5z M-281.2,185.3c-2.2,0-4-1.8-4-4c0-2.2,1.8-4,4-4c2.2,0,4,1.8,4,4
		C-277.2,183.4-279,185.3-281.2,185.3L-281.2,185.3z"/>
</g>
<g>
	<g>
		<path class="st6" d="M-286.3,210.6c-0.6,0.3-0.9,1.1-0.5,1.7c0.3,0.5,0.9,0.8,1.5,0.6c0.1,0,0.2-0.1,0.2-0.1l4.7-2.5
			c0.3-0.1,0.5-0.4,0.6-0.7l1.3-3.4l-0.8-0.1c-0.6-0.1-1.1-0.5-1.4-1l-1.2,3.2L-286.3,210.6z"/>
		<circle class="st6" cx="-272.6" cy="191.8" r="2.8"/>
		<path class="st6" d="M-278.7,192.9c-0.4-0.2-0.7-0.2-1-0.1c-0.1,0-0.2,0.1-0.3,0.1l-4.2,2.5c-0.6,0.3-0.8,1.1-0.4,1.7
			c0.3,0.5,0.9,0.7,1.4,0.5c0.1,0,0.2-0.1,0.3-0.1l3.6-2.1c0.3,0.2,2,1.2,2.3,1.4l0,0c-1.1,2.2-2.1,4.5-3.2,6.7c0,0,0,0.1,0,0.1
			c-0.3,0.7,0.2,1.6,1,1.8l1,0.2l4.7,0.8l-1.3,5c-0.2,0.7,0.2,1.4,0.9,1.6c0.2,0.1,0.5,0.1,0.7,0l0,0c0.4-0.1,0.7-0.5,0.9-0.9
			l1.6-6.3c0.1-0.3,0-0.7-0.2-1c-0.2-0.3-0.5-0.5-0.9-0.6l-3.9-0.7l2.3-4.9l3.4,1.4c0.3,0.1,0.6,0.1,0.8,0c0.3-0.1,0.5-0.3,0.7-0.6
			l2.2-3.8c0.3-0.6,0.1-1.3-0.5-1.7c-0.3-0.2-0.7-0.2-1-0.1c-0.3,0.1-0.5,0.3-0.7,0.6l-1.6,2.8
			C-269.9,197.2-277.3,193.7-278.7,192.9z"/>
	</g>
</g>
<g>
	<g id="_x31_4_5_">
		<g>
			<path class="st7" d="M-274,244.9c0.3-0.4,0.2-1.1,0.2-1.8c0,0,0-0.1,0-0.1c-0.4,0-0.8-0.1-1.2-0.1c-1.5,0-2.9,0.3-4.2,0.8
				c0.9,0.5,2.4,1.2,4,2.4C-274.7,245.7-274.3,245.2-274,244.9z"/>
			<path class="st7" d="M-267.9,251.8c-0.6,0.1-1.1,0.2-1.5,0.3c2,3.6,2.8,8.1,3,11.3c2-2.1,3.3-4.8,3.4-7.9
				C-264.4,253.8-266.2,251.6-267.9,251.8z"/>
			<path class="st7" d="M-280.1,248.7c1.4-0.3,2.8-1,3.9-1.8c-2.2-1.5-4.1-2.3-4.5-2.5c-2.3,1.3-4.2,3.3-5.3,5.7
				c1.4-0.6,2.9-0.8,4.4-1.1C-281.1,248.9-280.6,248.8-280.1,248.7z"/>
			<path class="st7" d="M-271.8,249.1c0.1,0.1,0.3,0.3,0.4,0.4c0.5,0.5,0.9,1,1.3,1.6c0.6-0.2,1.2-0.4,2-0.5c1.9-0.2,3.6,1.3,5,2.9
				c-0.3-2.5-1.4-4.7-3-6.5c-0.9,0.1-1.8,0.3-2.8,0.6C-269.5,247.8-270.6,248.3-271.8,249.1z"/>
			<path class="st7" d="M-273.4,255.3c0.5-1.7,1.1-2.9,2.2-3.6c-0.3-0.5-0.7-0.9-1.1-1.3c-0.2-0.2-0.4-0.4-0.5-0.5
				c-4.4,3-10.5,8.6-11.1,13.4c1.8,2,4.4,3.4,7.2,3.8c1-2.1,2-6.2,2.6-8.7C-273.8,257-273.6,255.9-273.4,255.3z"/>
			<path class="st7" d="M-278.4,252.6c1.5-1.4,3.2-2.7,4.7-3.7c-0.5-0.4-1-0.8-1.5-1.2c-1.2,0.9-2.9,1.8-4.6,2.2
				c-0.5,0.1-1,0.2-1.5,0.3c-1.9,0.4-3.7,0.7-5.2,1.5c-0.3,1-0.5,2.1-0.5,3.3c0,2.5,0.8,4.9,2.2,6.9C-284,258.4-281,255-278.4,252.6
				z"/>
			<path class="st7" d="M-272.7,248.2c1.4-0.9,2.7-1.5,3.5-1.8c0.7-0.2,1.4-0.4,2.1-0.5c-1.5-1.3-3.4-2.3-5.5-2.7
				c0,0.8,0.1,1.8-0.4,2.4c-0.2,0.3-0.6,0.8-1.2,1.2C-273.7,247.3-273.2,247.7-272.7,248.2z"/>
			<path class="st7" d="M-272.2,255.6c-0.2,0.6-0.4,1.7-0.7,2.8c-0.8,3.5-1.6,6.6-2.5,8.6c0.1,0,0.3,0,0.4,0c2.8,0,5.4-1,7.4-2.6
				c-0.1-3.4-0.9-8.2-3-11.8C-271.3,253.2-271.8,254.1-272.2,255.6z"/>
		</g>
	</g>
</g>
<g>
	<g>
		<path class="st8" d="M-275,294c6.6,0,12-5.4,12-12s-5.4-12-12-12c-6.6,0-12,5.4-12,12S-281.6,294-275,294z M-285.4,284.4
			c0.2,0.2,0.4,0.3,0.7,0.4l0.1,0c1.8,1,4.1,1.6,6.6,1.6c0.8,0,1.6-0.1,2.5-0.2c0.7-0.1,1.3-0.2,2.1-0.4c0.1,0,0.1,0,0.2-0.1
			c0.2-0.1,0.5-0.1,0.6-0.2c0,0,0,0,0-0.1c-0.1-0.2-0.2-0.4-0.3-0.6l0-0.1c-0.4-0.7-0.8-1.3-1.3-1.9l-0.1-0.1
			c-0.2-0.2-0.3-0.4-0.6-0.6c-0.1,0-0.3,0-0.5,0.1c-0.1,0-0.2,0-0.2,0.1c-0.3,0-0.5,0.1-0.8,0.2c-0.5,0.1-1,0.2-1.5,0.3
			c-0.6,0.1-1.2,0.1-1.7,0.1c-1.1,0-2.3-0.3-3.7-0.9c-0.6-0.3-1.2-0.6-1.8-1.1c0,0-0.1-0.1-0.1-0.2c-0.1-0.1-0.2-0.2-0.2-0.2
			c0.1-1,0.4-1.9,0.8-2.8c-0.1,0.3-0.1,0.6-0.2,0.9c0,0.1,0,0.2-0.1,0.3c-0.1,0.3-0.1,0.6-0.1,0.8c0.1,0.4,0.5,0.7,0.9,0.9
			c0,0,0.1,0.1,0.1,0.1c0,0,0.2,0.1,0.2,0.1c0-0.1,0.1-0.3,0.1-0.5c0-0.1,0-0.1,0-0.1c0.2-0.7,0.5-1.5,0.8-2.2
			c0.1-0.2,0.2-0.4,0.2-0.5c0.3-0.7,0.7-1.5,1.2-2.2c0.6-1,1.4-1.9,2.5-3.1c0,0,0,0,0.1,0c0.6-0.2,1.1-0.4,1.7-0.5
			c-0.1,0.1-0.2,0.2-0.4,0.3c-0.1,0.1-0.2,0.2-0.3,0.3c-1.9,1.6-3.3,3.6-4.4,6.2c-0.3,0.7-0.6,1.4-0.8,2.1c0,0.1,0,0.2-0.1,0.2
			c0,0.1-0.1,0.3-0.1,0.4c0,0,0.2,0.1,0.4,0.2c0.1,0,0.1,0,0.2,0.1c0.5,0.2,1.1,0.4,1.8,0.5c0.1,0,0.1,0,0.2,0
			c0.1,0,0.3,0.1,0.4,0.1c0,0,0.1-0.1,0.1-0.2l0-0.1c0.1-0.4,0.2-0.7,0.4-1.1c0.1-0.3,0.2-0.6,0.3-0.9c0.1-0.1,0.1-0.3,0.2-0.5
			c0.4-1.1,0.8-2.1,1.3-3c1-1.8,2.3-3.4,3.8-4.4c0.3-0.2,0.5-0.3,0.7-0.5c0.4,0.1,0.8,0.1,1.2,0.3c-0.6,0.2-1.2,0.6-1.7,1
			c-2.2,1.6-3.5,4-4.2,5.6c-0.4,0.9-0.8,2-1.1,3.1c0,0.1-0.1,0.2-0.1,0.3c-0.1,0.2-0.1,0.3-0.1,0.5c0,0,0.1,0,0.1,0
			c0.2,0,0.5,0,0.8-0.1c0.1,0,0.2,0,0.3,0l0.1,0c0.6-0.1,1.2-0.2,1.9-0.3c0.1,0,0.2,0,0.3,0c0.2,0,0.5-0.1,0.7-0.2
			c0.1-0.1,0.1-0.2,0.2-0.4c0-0.1,0-0.2,0.1-0.2l0.1-0.2c0.2-0.5,0.4-0.9,0.6-1.4c0.6-1.3,1.5-2.6,2.6-3.7c0.7-0.7,1.6-1.3,2.4-1.7
			c0.3-0.1,0.6-0.2,0.8-0.3l0.1,0c0,0,0,0,0,0c0.5,0.4,1,0.8,1.4,1.3c-0.2-0.1-0.4-0.3-0.6-0.4l-0.1,0c-0.1-0.1-0.3-0.2-0.4-0.2
			c-0.4,0.1-0.7,0.2-1,0.3l-0.1,0c0,0-0.1,0-0.1,0.1c0,0,0.2,0.2,0.3,0.2c0.1,0,0.1,0.1,0.1,0.1c0.4,0.5,0.8,1,1.2,1.4l0,0
			c0.6,0.8,1.2,1.6,1.7,2.5c0.5,0.8,0.9,1.8,1.3,2.9c0.1,0.4,0.2,0.8,0.3,1.2c-0.1,0.8-0.2,1.5-0.5,2.2c0-0.3,0-0.6-0.1-1
			c-0.1-0.7-0.2-1.4-0.4-2.1c-0.6-1.8-1.6-3.4-2.4-4.6c-0.6-0.8-1.1-1.5-1.7-2.1c0,0-0.1-0.1-0.1-0.1c-0.1-0.1-0.3-0.4-0.4-0.4
			c-0.1,0-0.3,0.2-0.4,0.3c0,0-0.1,0.1-0.1,0.1c-0.5,0.4-0.9,0.8-1.4,1.4c0,0-0.1,0.1-0.1,0.1c-0.1,0.1-0.3,0.3-0.3,0.4
			c0,0.1,0.2,0.3,0.3,0.4c0.1,0.1,0.1,0.1,0.2,0.2c0.5,0.5,1,1,1.4,1.5c1.2,1.5,2.6,3.3,3.2,5.4c0.4,1.4,0.6,2.5,0.7,3.6l0,0.1
			c-0.2,0.3-0.4,0.5-0.7,0.8c0-0.3,0-0.7-0.1-1c0-0.1,0-0.2,0-0.3c-0.2-2-0.8-3.8-1.7-5.3c-0.4-0.6-0.8-1.2-1.1-1.7
			c-0.6-0.9-1.3-1.7-2-2.4c-0.2-0.2-0.4-0.4-0.5-0.5c0,0-0.1-0.1-0.1-0.1c0,0,0,0.1-0.1,0.1l-0.4,0.6c-0.3,0.5-0.6,1.2-0.8,1.8
			l-0.1,0.4c0,0.1-0.1,0.1-0.1,0.2c-0.1,0.2-0.2,0.4-0.2,0.6c0,0.1,0.1,0.2,0.3,0.3c0.1,0.1,0.1,0.1,0.2,0.2c0.4,0.4,0.7,0.8,1,1.3
			c0.9,1.4,1.9,3.2,2.4,5.1c0.2,0.8,0.3,1.6,0.2,2.3c0,0.3-0.1,0.5-0.1,0.8c0,0,0,0.1,0,0.1c0,0,0,0.1,0,0.1c0,0,0,0,0,0
			c-1.1,0.5-2.3,0.8-3.6,0.9c0.5-0.1,1-0.3,1.5-0.5c0.1-0.1,0.3-0.1,0.5-0.2c0.3-0.1,0.6-0.2,0.8-0.3c0.1,0,0.1-0.1,0.1-0.3
			c0.1-0.3,0.1-0.6,0.1-0.9v-0.1c0-0.1,0-0.2,0-0.2c0,0-0.1,0-0.1,0l-0.1,0c-0.1,0-0.2,0.1-0.3,0.1l-0.2,0.1c-0.7,0.2-1.4,0.3-2,0.4
			c-1.9,0.2-4,0.2-5.9-0.2c-0.7-0.1-1.3-0.3-1.9-0.4c-0.4-0.4-0.9-0.8-1.2-1.2c1.9,0.8,4.1,1.2,6.5,1.2c0.8,0,1.6,0,2.3-0.1
			c0.7-0.1,1.4-0.2,2.2-0.4c0.1,0,0.2,0,0.2,0c0.2,0,0.5-0.1,0.6-0.2c0,0,0-0.1,0-0.5c0,0,0-0.1,0-0.1c-0.2-0.7-0.4-1.4-0.7-2
			c0,0,0-0.1-0.1-0.1c0-0.1-0.1-0.4-0.2-0.4c0,0-0.1,0-0.1,0c0,0-0.1,0-0.1,0l0,0c-0.2,0.1-0.4,0.1-0.7,0.2
			c-0.7,0.2-1.5,0.4-2.4,0.5c-0.8,0.1-1.6,0.2-2.4,0.2c-1.7,0-3.2-0.2-4.6-0.7c-0.9-0.3-1.7-0.6-2.4-1
			C-285.2,285.2-285.3,284.8-285.4,284.4z"/>
	</g>
</g>
<g>
	<path class="st9" d="M-277.4,219.4c1.2,0,2.2-1,2.2-2.2c0-1.2-1-2.2-2.2-2.2c-1.2,0-2.2,1-2.2,2.2
		C-279.6,218.4-278.6,219.4-277.4,219.4z"/>
	<path class="st9" d="M-282.4,229.9l-0.4,2.7c0,0-1,2.4-1.7,3.8c-0.5,1.1-0.8,1.8-0.4,2c0.6,0.3,1.3-0.4,2.1-1.6
		c1.3-2,2-3.1,2.2-3.5l0.4-1.3C-280.2,232.1-282.1,230.8-282.4,229.9z"/>
	<path class="st9" d="M-270.3,222.1c-0.2-0.5-0.6-0.4-1.1-0.3v-0.9c0-0.3-0.2-0.5-0.5-0.5c-0.3,0-0.5,0.2-0.5,0.5v1.4l-1.7,0.8
		l-2.9-2.1c-0.1-0.1-0.2-0.1-0.3-0.1c0,0,0,0,0,0l-2.3-0.6c-0.3-0.1-0.7,0.2-0.8,0.8l-1.6,5.6c-0.2,1.2-0.2,2,0.8,3c0,0,0,0,0,0.1
		l3.9,3.3l-0.4,4.2c0,1,0,1.6,0.7,1.7c0.6,0.1,0.9-1.2,0.9-1.5c0,0,0.8-4,0.9-4.6c0.1-0.6,0.1-1.2-0.3-1.7l-3-3l1.2-4.7l2.3,1.6
		c0.3,0.2,0.7,0.3,1.1,0.2c0,0,0.8-0.5,1.6-1v14.3c0,0.3,0.2,0.5,0.5,0.5c0.3,0,0.5-0.2,0.5-0.5v-15c0,0,0.1,0,0.1,0
		C-270.7,223-270,222.5-270.3,222.1z"/>
	<path class="st9" d="M-283.1,225.8c0.2-0.7,1.6-4.9,1.6-4.9c0.5-1.8-1.9-1.4-3-0.3c-1.1,1.1-2.3,2.9-2.5,4.2
		c-0.2,1.2,0.9,1.6,1.9,1.9C-284,227-283.3,226.5-283.1,225.8z"/>
</g>
<g id="Page-1_5_">
	<g id="icon-34-award_5_">
		<path id="award_5_" class="st10" d="M-279.2,337.5l-3.3,8.5l-1.4-3.2l-3.2,1.4l3.2-8.4C-282.5,336.8-280.9,337.4-279.2,337.5
			L-279.2,337.5L-279.2,337.5z M-273.9,335.8l3.2,8.4l-3.2-1.4l-1.4,3.2l-3.3-8.5C-276.8,337.4-275.2,336.8-273.9,335.8
			L-273.9,335.8L-273.9,335.8z M-278.8,336.7c4,0,7.3-3.3,7.3-7.3c0-4-3.3-7.3-7.3-7.3c-4,0-7.3,3.3-7.3,7.3
			C-286.2,333.4-282.9,336.7-278.8,336.7L-278.8,336.7z M-278.8,331.5l-2.8,1.9l1.2-3.3l-2.4-1.6h2.8l1.2-3.3l1.2,3.3h2.8l-2.4,1.6
			l1.2,3.3L-278.8,331.5L-278.8,331.5z"/>
	</g>
</g>
<path class="st4" d="M-266.5,299.5c-2.3-2.3-5.3-3.5-8.5-3.5c-3.2,0-6.2,1.2-8.5,3.5c-2.3,2.3-3.5,5.3-3.5,8.5s1.2,6.2,3.5,8.5
	c2.3,2.3,5.3,3.5,8.5,3.5c3.2,0,6.2-1.2,8.5-3.5c2.3-2.3,3.5-5.3,3.5-8.5S-264.2,301.8-266.5,299.5z M-274.7,300.1l3.5-1l3.5,2.6
	l0.1,3.6l-3.5,1.5l-3.7-2.7C-274.7,304.1-274.7,300.1-274.7,300.1z M-279.2,307.3l1.4,4.2l-2.3,2.4l-3.5-1.7l-0.9-3.6l1.9-2.8
	L-279.2,307.3z M-282.4,305.3l0.1-3.8l3.5-2.5l3.6,1v4l-3.7,2.7L-282.4,305.3z M-277.6,312.1h5.3l0-0.1l2.2,2.3l-1.8,2.9h-6.1
	l-1.7-2.8L-277.6,312.1z M-269.7,313.9l-2.4-2.5l1.4-4.2l3.4-1.5l2,2.9l-1,3.6L-269.7,313.9z M-265.7,301.8l-1.8-0.7l-3.5-2.6
	l-1.1-1.3C-269.4,297.9-267.2,299.5-265.7,301.8z M-277.9,297.2l-1.1,1.3l-3.8,2.7l-1.6,0.6C-282.8,299.5-280.6,297.9-277.9,297.2z
	 M-286.2,307.3l1.1,1.8l0.9,3.6l-0.1,1.7c-1.3-1.8-2-4-2-6.4C-286.2,307.8-286.2,307.5-286.2,307.3z M-279.8,318.2l2.1-0.4h5.4
	l2.1,0.4c-1.5,0.7-3.1,1.1-4.8,1.1C-276.7,319.2-278.3,318.8-279.8,318.2z M-265.8,314.4l-0.1-1.9l1-3.6l1.1-1.6c0,0.2,0,0.5,0,0.7
	C-263.8,310.4-264.5,312.5-265.8,314.4z"/>
<polygon class="st11" points="-274.4,349 -271.4,358.2 -261.8,358.2 -269.6,363.8 -266.6,373 -274.4,367.3 -282.2,373 -279.2,363.8 
	-287,358.2 -277.4,358.2 "/>
<path class="st12" d="M-273.5,583c-7.4,0-13.5,6-13.5,13.5s6,13.5,13.5,13.5s13.5-6,13.5-13.5S-266.1,583-273.5,583z M-269.9,596.4
	h-2.4c0,3.7,0,8.3,0,8.3h-3.5c0,0,0-4.6,0-8.3h-1.6v-3h1.6v-1.9c0-1.4,0.7-3.5,3.5-3.5h2.6v2.9c0,0-1.5,0-1.9,0
	c-0.3,0-0.7,0.2-0.7,0.8v1.8h2.6L-269.9,596.4z"/>
</svg>
