<?xml version="1.0" encoding="utf-8"?>
<!-- Generator: Adobe Illustrator 19.1.0, SVG Export Plug-In . SVG Version: 6.00 Build 0)  -->
<svg version="1.1" id="Layer_1" xmlns="http://www.w3.org/2000/svg" xmlns:xlink="http://www.w3.org/1999/xlink" x="0px" y="0px"
	 viewBox="-291 173 27.7 448" style="enable-background:new -291 173 27.7 448;" xml:space="preserve">
<style type="text/css">
	.st0{fill:#CB6120;}
	.st1{fill:#727176;}
	.st2{fill:#BF0411;}
	.st3{fill:#A3BD31;}
	.st4{fill:#5FA199;}
	.st5{fill:#513E8C;}
	.st6{fill:#76AADB;}
	.st7{fill:#C64832;}
	.st8{fill:#E6B54A;}
	.st9{fill:#70A83B;}
	.st10{fill:#C3B325;}
	.st11{fill:#BC9E6C;}
	.st12{fill:#20A19A;}
</style>
<g id="bg">
</g>
<g id="Capa_3">
</g>
<g>
	<path class="st0" d="M-277.7,539.4c-0.3-0.2-0.7-0.2-1.1,0l-4.1,2.4c-0.3,0.2-0.5,0.6-0.5,0.9v4.3c0,0.6,0.5,1.1,1.1,1.1h4.1
		c0.6,0,1.1-0.5,1.1-1.1v-6.6C-277.1,540-277.4,539.6-277.7,539.4z"/>
	<path class="st0" d="M-285.1,543.6c-0.3-0.2-0.7-0.2-1.1,0l-4.2,2.4c-0.4,0.2-0.6,0.7-0.5,1.2s0.6,0.8,1.1,0.8h4.2
		c0.6,0,1.1-0.5,1.1-1.1v-2.4C-284.5,544.2-284.7,543.8-285.1,543.6z"/>
	<path class="st1" d="M-270.2,535.1c-0.3-0.2-0.7-0.2-1.1,0l-4.2,2.4c-0.3,0.2-0.5,0.6-0.5,0.9v8.5c0,0.6,0.5,1.1,1.1,1.1h4.2
		c0.6,0,1.1-0.5,1.1-1.1V536C-269.7,535.7-269.9,535.3-270.2,535.1z"/>
</g>
<g>
	<path class="st2" d="M-277.7,558.4c-0.3-0.2-0.7-0.2-1.1,0l-4.1,2.4c-0.3,0.2-0.5,0.6-0.5,0.9v4.3c0,0.6,0.5,1.1,1.1,1.1h4.1
		c0.6,0,1.1-0.5,1.1-1.1v-6.6C-277.1,559-277.4,558.6-277.7,558.4z"/>
	<path class="st2" d="M-285.1,562.6c-0.3-0.2-0.7-0.2-1.1,0l-4.2,2.4c-0.4,0.2-0.6,0.7-0.5,1.2s0.6,0.8,1.1,0.8h4.2
		c0.6,0,1.1-0.5,1.1-1.1v-2.4C-284.5,563.2-284.7,562.8-285.1,562.6z"/>
	<path class="st2" d="M-270.2,554.1c-0.3-0.2-0.7-0.2-1.1,0l-4.2,2.4c-0.3,0.2-0.5,0.6-0.5,0.9v8.5c0,0.6,0.5,1.1,1.1,1.1h4.2
		c0.6,0,1.1-0.5,1.1-1.1V555C-269.7,554.7-269.9,554.3-270.2,554.1z"/>
</g>
<g>
	<path class="st0" d="M-277.7,576.4c-0.3-0.2-0.7-0.2-1.1,0l-4.1,2.4c-0.3,0.2-0.5,0.6-0.5,0.9v4.3c0,0.6,0.5,1.1,1.1,1.1h4.1
		c0.6,0,1.1-0.5,1.1-1.1v-6.6C-277.1,577-277.4,576.6-277.7,576.4z"/>
	<path class="st3" d="M-285.1,580.6c-0.3-0.2-0.7-0.2-1.1,0l-4.2,2.4c-0.4,0.2-0.6,0.7-0.5,1.2s0.6,0.8,1.1,0.8h4.2
		c0.6,0,1.1-0.5,1.1-1.1v-2.4C-284.5,581.2-284.7,580.8-285.1,580.6z"/>
	<path class="st2" d="M-270.2,572.1c-0.3-0.2-0.7-0.2-1.1,0l-4.2,2.4c-0.3,0.2-0.5,0.6-0.5,0.9v8.5c0,0.6,0.5,1.1,1.1,1.1h4.2
		c0.6,0,1.1-0.5,1.1-1.1V573C-269.7,572.7-269.9,572.3-270.2,572.1z"/>
</g>
<g>
	<path class="st1" d="M-277.7,520.4c-0.3-0.2-0.7-0.2-1.1,0l-4.1,2.4c-0.3,0.2-0.5,0.6-0.5,0.9v4.3c0,0.6,0.5,1.1,1.1,1.1h4.1
		c0.6,0,1.1-0.5,1.1-1.1v-6.6C-277.1,521-277.4,520.6-277.7,520.4z"/>
	<path class="st3" d="M-285.1,524.6c-0.3-0.2-0.7-0.2-1.1,0l-4.2,2.4c-0.4,0.2-0.6,0.7-0.5,1.2s0.6,0.8,1.1,0.8h4.2
		c0.6,0,1.1-0.5,1.1-1.1v-2.4C-284.5,525.2-284.7,524.8-285.1,524.6z"/>
	<path class="st1" d="M-270.2,516.1c-0.3-0.2-0.7-0.2-1.1,0l-4.2,2.4c-0.3,0.2-0.5,0.6-0.5,0.9v8.5c0,0.6,0.5,1.1,1.1,1.1h4.2
		c0.6,0,1.1-0.5,1.1-1.1V517C-269.7,516.7-269.9,516.3-270.2,516.1z"/>
</g>
<g>
	<g>
		<path class="st4" d="M-278.7,426.9l-0.8-2.3l0.8-2.4c0-0.1,0-0.3-0.1-0.4c-0.1-0.1-0.2-0.2-0.3-0.2h-4.2c-0.3,0-0.2-0.1-0.2-0.1
			c0-0.9-0.6-1.3-1.2-1.3h-3.5c0.1-0.1,0.1-0.3,0.1-0.4c0-0.4-0.3-0.8-0.8-0.8h-0.5c-0.4,0-0.8,0.3-0.8,0.8c0,0.3,0.1,0.5,0.4,0.6
			V432h1.3v-5.3h3.8c0.1,0,0.2,0,0.2,0.2l0,0c0,0.3,0.2,0.5,0.5,0.5l0,0l0,0h4.9c0.2,0,0.4-0.2,0.4-0.4
			C-278.7,427-278.7,426.9-278.7,426.9L-278.7,426.9z"/>
	</g>
</g>
<g>
	<path class="st4" d="M-284.5,444c-2.4,0-4.3,1.9-4.3,4.3c0,1,0.6,2.5,1.9,4.8c0.9,1.6,1.8,2.9,1.8,3l0.6,1l0.6-1
		c0-0.1,0.9-1.4,1.8-3c1.3-2.2,1.9-3.8,1.9-4.8C-280.2,445.9-282.1,444-284.5,444L-284.5,444z M-284.5,450.5c-1.2,0-2.2-1-2.2-2.2
		s1-2.2,2.2-2.2s2.2,1,2.2,2.2S-283.3,450.5-284.5,450.5L-284.5,450.5z"/>
</g>
<g>
	<path class="st4" d="M-284.5,470c-3.6,0-6.5,2.9-6.5,6.5c0,3.6,2.9,6.5,6.5,6.5c3.6,0,6.5-2.9,6.5-6.5
		C-278,472.9-280.9,470-284.5,470z M-284.5,481.7c-2.9,0-5.2-2.3-5.2-5.2s2.3-5.2,5.2-5.2s5.2,2.3,5.2,5.2S-281.6,481.7-284.5,481.7
		z"/>
	<polygon class="st4" points="-284.2,473.2 -285.1,473.2 -285.1,477.1 -281.8,479.2 -281.2,478.4 -284.2,476.6 	"/>
</g>
<g>
	<g>
		<path class="st4" d="M-277.7,500.4c-0.3-0.2-0.7-0.2-1.1,0l-4.1,2.4c-0.3,0.2-0.5,0.6-0.5,0.9v4.2c0,0.6,0.5,1.1,1.1,1.1h4.1
			c0.6,0,1.1-0.5,1.1-1.1v-6.6C-277.1,500.9-277.4,500.6-277.7,500.4z"/>
		<path class="st4" d="M-285.1,504.6c-0.3-0.2-0.7-0.2-1.1,0l-4.2,2.4c-0.4,0.2-0.6,0.7-0.5,1.2s0.6,0.8,1.1,0.8h4.2
			c0.6,0,1.1-0.5,1.1-1.1v-2.4C-284.5,505.1-284.7,504.8-285.1,504.6z"/>
		<path class="st4" d="M-270.2,496.1c-0.3-0.2-0.7-0.2-1.1,0l-4.2,2.4c-0.3,0.2-0.5,0.6-0.5,0.9v8.4c0,0.6,0.5,1.1,1.1,1.1h4.2
			c0.6,0,1.1-0.5,1.1-1.1V497C-269.7,496.7-269.9,496.3-270.2,496.1z"/>
	</g>
</g>
<g>
	<path class="st4" d="M-286.3,400.2c0-0.2-0.1-0.3-0.3-0.3h-1c-0.2,0-0.3,0.1-0.3,0.3v1c0,0.2,0.1,0.3,0.3,0.3h1
		c0.2,0,0.3-0.1,0.3-0.3V400.2z"/>
	<path class="st4" d="M-283.7,400.2c0-0.2-0.1-0.3-0.3-0.3h-1c-0.2,0-0.3,0.1-0.3,0.3v1c0,0.2,0.1,0.3,0.3,0.3h1
		c0.2,0,0.3-0.1,0.3-0.3V400.2z"/>
	<path class="st4" d="M-281.2,400.2c0-0.2-0.1-0.3-0.3-0.3h-1c-0.2,0-0.3,0.1-0.3,0.3v1c0,0.2,0.1,0.3,0.3,0.3h1
		c0.2,0,0.3-0.1,0.3-0.3V400.2z"/>
	<path class="st4" d="M-286.3,402.7c0-0.2-0.1-0.3-0.3-0.3h-1c-0.2,0-0.3,0.1-0.3,0.3v1c0,0.2,0.1,0.3,0.3,0.3h1
		c0.2,0,0.3-0.1,0.3-0.3V402.7z"/>
	<path class="st4" d="M-283.7,402.7c0-0.2-0.1-0.3-0.3-0.3h-1c-0.2,0-0.3,0.1-0.3,0.3v1c0,0.2,0.1,0.3,0.3,0.3h1
		c0.2,0,0.3-0.1,0.3-0.3V402.7z"/>
	<g>
		<path class="st4" d="M-281.2,402.7c0-0.2-0.1-0.3-0.3-0.3h-1c-0.2,0-0.3,0.1-0.3,0.3v1c0,0.2,0.1,0.3,0.3,0.3h1
			c0.2,0,0.3-0.1,0.3-0.3V402.7z"/>
		<path class="st4" d="M-279.3,394.4v1.6c0,0.7-0.6,1.3-1.3,1.3h-0.8c-0.7,0-1.3-0.6-1.3-1.3v-1.6h-3.7v1.6c0,0.7-0.6,1.3-1.3,1.3
			h-0.8c-0.7,0-1.3-0.6-1.3-1.3v-1.6c-0.6,0-1.1,0.5-1.1,1.2v9.2c0,0.6,0.5,1.2,1.2,1.2h10.4c0.6,0,1.2-0.5,1.2-1.2v-9.2
			C-278.2,395-278.7,394.5-279.3,394.4L-279.3,394.4z M-279.7,404.2c0,0.3-0.2,0.5-0.5,0.5h-8.7c-0.3,0-0.5-0.2-0.5-0.5v-4.8
			c0-0.3,0.2-0.5,0.5-0.5h8.7c0.3,0,0.5,0.2,0.5,0.5V404.2L-279.7,404.2z"/>
	</g>
	<path class="st4" d="M-288.5,396.5h0.8c0.2,0,0.4-0.2,0.4-0.4v-2.6c0-0.2-0.2-0.4-0.4-0.4h-0.8c-0.2,0-0.4,0.2-0.4,0.4v2.6
		C-288.9,396.3-288.7,396.5-288.5,396.5L-288.5,396.5z"/>
	<path class="st4" d="M-281.4,396.5h0.8c0.2,0,0.4-0.2,0.4-0.4v-2.6c0-0.2-0.2-0.4-0.4-0.4h-0.8c-0.2,0-0.4,0.2-0.4,0.4v2.6
		C-281.9,396.3-281.7,396.5-281.4,396.5L-281.4,396.5z"/>
</g>
<g>
	<path class="st5" d="M-272.5,177.2c1.2,0,2.1-0.9,2.1-2.1c0-1.2-0.9-2.1-2.1-2.1s-2.1,0.9-2.1,2.1
		C-274.6,176.2-273.7,177.2-272.5,177.2L-272.5,177.2z M-269.1,185.5c-3.2,0-5.8,2.5-5.8,5.8c0,3.2,2.5,5.8,5.8,5.8
		c3.2,0,5.8-2.5,5.8-5.8C-263.3,188-265.8,185.5-269.1,185.5L-269.1,185.5z M-269.1,195.3c-2.2,0-4-1.8-4-4s1.8-4,4-4s4,1.8,4,4
		C-265,193.4-266.9,195.3-269.1,195.3L-269.1,195.3z M-273.9,183.2h4.8v-2.1h-3.7l-2.2-3.8c-0.3-0.6-0.9-0.9-1.7-0.9
		c-0.6,0-1,0.2-1.4,0.6l-4.3,4.3c-0.3,0.3-0.6,0.8-0.6,1.4c0,0.7,0.3,1.4,0.9,1.7l3.9,2.3v5.8h2.1V185l-2.5-2l2.7-2.7L-273.9,183.2z
		 M-285.2,185.5c-3.2,0-5.8,2.5-5.8,5.8c0,3.2,2.5,5.8,5.8,5.8s5.8-2.5,5.8-5.8C-279.5,188-282,185.5-285.2,185.5L-285.2,185.5z
		 M-285.2,195.3c-2.2,0-4-1.8-4-4s1.8-4,4-4s4,1.8,4,4C-281.2,193.4-283,195.3-285.2,195.3L-285.2,195.3z"/>
</g>
<g>
	<g>
		<path class="st6" d="M-286.9,220.6c-0.6,0.3-0.9,1.1-0.5,1.7c0.3,0.5,0.9,0.8,1.5,0.6c0.1,0,0.2-0.1,0.2-0.1l4.7-2.5
			c0.3-0.1,0.5-0.4,0.6-0.7l1.3-3.4l-0.8-0.1c-0.6-0.1-1.1-0.5-1.4-1l-1.2,3.2L-286.9,220.6z"/>
		<circle class="st6" cx="-273.2" cy="201.8" r="2.8"/>
		<path class="st6" d="M-279.3,202.9c-0.4-0.2-0.7-0.2-1-0.1c-0.1,0-0.2,0.1-0.3,0.1l-4.2,2.5c-0.6,0.3-0.8,1.1-0.4,1.7
			c0.3,0.5,0.9,0.7,1.4,0.5c0.1,0,0.2-0.1,0.3-0.1l3.6-2.1c0.3,0.2,2,1.2,2.3,1.4l0,0c-1.1,2.2-2.1,4.5-3.2,6.7v0.1
			c-0.3,0.7,0.2,1.6,1,1.8l1,0.2l4.7,0.8l-1.3,5c-0.2,0.7,0.2,1.4,0.9,1.6c0.2,0.1,0.5,0.1,0.7,0l0,0c0.4-0.1,0.7-0.5,0.9-0.9
			l1.6-6.3c0.1-0.3,0-0.7-0.2-1s-0.5-0.5-0.9-0.6l-3.9-0.7l2.3-4.9l3.4,1.4c0.3,0.1,0.6,0.1,0.8,0c0.3-0.1,0.5-0.3,0.7-0.6l2.2-3.8
			c0.3-0.6,0.1-1.3-0.5-1.7c-0.3-0.2-0.7-0.2-1-0.1c-0.3,0.1-0.5,0.3-0.7,0.6l-1.6,2.8C-270.5,207.2-277.9,203.7-279.3,202.9z"/>
	</g>
</g>
<g>
	<g id="_x31_4_5_">
		<g>
			<path class="st7" d="M-276.1,254.9c0.3-0.4,0.2-1.1,0.2-1.8V253c-0.4,0-0.8-0.1-1.2-0.1c-1.5,0-2.9,0.3-4.2,0.8
				c0.9,0.5,2.4,1.2,4,2.4C-276.9,255.7-276.4,255.2-276.1,254.9z"/>
			<path class="st7" d="M-270,261.8c-0.6,0.1-1.1,0.2-1.5,0.3c2,3.6,2.8,8.1,3,11.3c2-2.1,3.3-4.8,3.4-7.9
				C-266.5,263.8-268.4,261.6-270,261.8z"/>
			<path class="st7" d="M-282.2,258.7c1.4-0.3,2.8-1,3.9-1.8c-2.2-1.5-4.1-2.3-4.5-2.5c-2.3,1.3-4.2,3.3-5.3,5.7
				c1.4-0.6,2.9-0.8,4.4-1.1C-283.2,258.9-282.8,258.8-282.2,258.7z"/>
			<path class="st7" d="M-273.9,259.1c0.1,0.1,0.3,0.3,0.4,0.4c0.5,0.5,0.9,1,1.3,1.6c0.6-0.2,1.2-0.4,2-0.5c1.9-0.2,3.6,1.3,5,2.9
				c-0.3-2.5-1.4-4.7-3-6.5c-0.9,0.1-1.8,0.3-2.8,0.6C-271.6,257.8-272.8,258.3-273.9,259.1z"/>
			<path class="st7" d="M-275.5,265.3c0.5-1.7,1.1-2.9,2.2-3.6c-0.3-0.5-0.7-0.9-1.1-1.3c-0.2-0.2-0.4-0.4-0.5-0.5
				c-4.4,3-10.5,8.6-11.1,13.4c1.8,2,4.4,3.4,7.2,3.8c1-2.1,2-6.2,2.6-8.7C-275.9,267-275.8,265.9-275.5,265.3z"/>
			<path class="st7" d="M-280.5,262.6c1.5-1.4,3.2-2.7,4.7-3.7c-0.5-0.4-1-0.8-1.5-1.2c-1.2,0.9-2.9,1.8-4.6,2.2
				c-0.5,0.1-1,0.2-1.5,0.3c-1.9,0.4-3.7,0.7-5.2,1.5c-0.3,1-0.5,2.1-0.5,3.3c0,2.5,0.8,4.9,2.2,6.9
				C-286.1,268.4-283.1,265-280.5,262.6z"/>
			<path class="st7" d="M-274.9,258.2c1.4-0.9,2.7-1.5,3.5-1.8c0.7-0.2,1.4-0.4,2.1-0.5c-1.5-1.3-3.4-2.3-5.5-2.7
				c0,0.8,0.1,1.8-0.4,2.4c-0.2,0.3-0.6,0.8-1.2,1.2C-275.9,257.3-275.4,257.7-274.9,258.2z"/>
			<path class="st7" d="M-274.4,265.6c-0.2,0.6-0.4,1.7-0.7,2.8c-0.8,3.5-1.6,6.6-2.5,8.6c0.1,0,0.3,0,0.4,0c2.8,0,5.4-1,7.4-2.6
				c-0.1-3.4-0.9-8.2-3-11.8C-273.4,263.2-273.9,264.1-274.4,265.6z"/>
		</g>
	</g>
</g>
<g>
	<g>
		<path class="st8" d="M-277.1,304c6.6,0,12-5.4,12-12c0-6.6-5.4-12-12-12s-12,5.4-12,12C-289.1,298.6-283.8,304-277.1,304z
			 M-287.5,294.4c0.2,0.2,0.4,0.3,0.7,0.4h0.1c1.8,1,4.1,1.6,6.6,1.6c0.8,0,1.6-0.1,2.5-0.2c0.7-0.1,1.3-0.2,2.1-0.4
			c0.1,0,0.1,0,0.2-0.1c0.2-0.1,0.5-0.1,0.6-0.2c0,0,0,0,0-0.1c-0.1-0.2-0.2-0.4-0.3-0.6v-0.1c-0.4-0.7-0.8-1.3-1.3-1.9l-0.1-0.1
			c-0.2-0.2-0.3-0.4-0.6-0.6c-0.1,0-0.3,0-0.5,0.1c-0.1,0-0.2,0-0.2,0.1c-0.3,0-0.5,0.1-0.8,0.2c-0.5,0.1-1,0.2-1.5,0.3
			c-0.6,0.1-1.2,0.1-1.7,0.1c-1.1,0-2.3-0.3-3.7-0.9c-0.6-0.3-1.2-0.6-1.8-1.1c0,0-0.1-0.1-0.1-0.2c-0.1-0.1-0.2-0.2-0.2-0.2
			c0.1-1,0.4-1.9,0.8-2.8c-0.1,0.3-0.1,0.6-0.2,0.9c0,0.1,0,0.2-0.1,0.3c-0.1,0.3-0.1,0.6-0.1,0.8c0.1,0.4,0.5,0.7,0.9,0.9l0.1,0.1
			l0.2,0.1c0-0.1,0.1-0.3,0.1-0.5c0-0.1,0-0.1,0-0.1c0.2-0.7,0.5-1.5,0.8-2.2c0.1-0.2,0.2-0.4,0.2-0.5c0.3-0.7,0.7-1.5,1.2-2.2
			c0.6-1,1.4-1.9,2.5-3.1c0,0,0,0,0.1,0c0.6-0.2,1.1-0.4,1.7-0.5c-0.1,0.1-0.2,0.2-0.4,0.3c-0.1,0.1-0.2,0.2-0.3,0.3
			c-1.9,1.6-3.3,3.6-4.4,6.2c-0.3,0.7-0.6,1.4-0.8,2.1c0,0.1,0,0.2-0.1,0.2c0,0.1-0.1,0.3-0.1,0.4c0,0,0.2,0.1,0.4,0.2
			c0.1,0,0.1,0,0.2,0.1c0.5,0.2,1.1,0.4,1.8,0.5c0.1,0,0.1,0,0.2,0s0.3,0.1,0.4,0.1c0,0,0.1-0.1,0.1-0.2v-0.1
			c0.1-0.4,0.2-0.7,0.4-1.1c0.1-0.3,0.2-0.6,0.3-0.9c0.1-0.1,0.1-0.3,0.2-0.5c0.4-1.1,0.8-2.1,1.3-3c1-1.8,2.3-3.4,3.8-4.4
			c0.3-0.2,0.5-0.3,0.7-0.5c0.4,0.1,0.8,0.1,1.2,0.3c-0.6,0.2-1.2,0.6-1.7,1c-2.2,1.6-3.5,4-4.2,5.6c-0.4,0.9-0.8,2-1.1,3.1
			c0,0.1-0.1,0.2-0.1,0.3c-0.1,0.2-0.1,0.3-0.1,0.5h0.1c0.2,0,0.5,0,0.8-0.1c0.1,0,0.2,0,0.3,0h0.1c0.6-0.1,1.2-0.2,1.9-0.3
			c0.1,0,0.2,0,0.3,0c0.2,0,0.5-0.1,0.7-0.2c0.1-0.1,0.1-0.2,0.2-0.4c0-0.1,0-0.2,0.1-0.2l0.1-0.2c0.2-0.5,0.4-0.9,0.6-1.4
			c0.6-1.3,1.5-2.6,2.6-3.7c0.7-0.7,1.6-1.3,2.4-1.7c0.3-0.1,0.6-0.2,0.8-0.3h0.1l0,0c0.5,0.4,1,0.8,1.4,1.3
			c-0.2-0.1-0.4-0.3-0.6-0.4h-0.1c-0.1-0.1-0.3-0.2-0.4-0.2c-0.4,0.1-0.7,0.2-1,0.3h-0.1c0,0-0.1,0-0.1,0.1c0,0,0.2,0.2,0.3,0.2
			c0.1,0,0.1,0.1,0.1,0.1c0.4,0.5,0.8,1,1.2,1.4l0,0c0.6,0.8,1.2,1.6,1.7,2.5c0.5,0.8,0.9,1.8,1.3,2.9c0.1,0.4,0.2,0.8,0.3,1.2
			c-0.1,0.8-0.2,1.5-0.5,2.2c0-0.3,0-0.6-0.1-1c-0.1-0.7-0.2-1.4-0.4-2.1c-0.6-1.8-1.6-3.4-2.4-4.6c-0.6-0.8-1.1-1.5-1.7-2.1
			l-0.1-0.1c-0.1-0.1-0.3-0.4-0.4-0.4s-0.3,0.2-0.4,0.3l-0.1,0.1c-0.5,0.4-0.9,0.8-1.4,1.4l-0.1,0.1c-0.1,0.1-0.3,0.3-0.3,0.4
			c0,0.1,0.2,0.3,0.3,0.4c0.1,0.1,0.1,0.1,0.2,0.2c0.5,0.5,1,1,1.4,1.5c1.2,1.5,2.6,3.3,3.2,5.4c0.4,1.4,0.6,2.5,0.7,3.6v0.1
			c-0.2,0.3-0.4,0.5-0.7,0.8c0-0.3,0-0.7-0.1-1c0-0.1,0-0.2,0-0.3c-0.2-2-0.8-3.8-1.7-5.3c-0.4-0.6-0.8-1.2-1.1-1.7
			c-0.6-0.9-1.3-1.7-2-2.4c-0.2-0.2-0.4-0.4-0.5-0.5l-0.1-0.1c0,0,0,0.1-0.1,0.1l-0.4,0.6c-0.3,0.5-0.6,1.2-0.8,1.8l-0.1,0.4
			c0,0.1-0.1,0.1-0.1,0.2c-0.1,0.2-0.2,0.4-0.2,0.6c0,0.1,0.1,0.2,0.3,0.3c0.1,0.1,0.1,0.1,0.2,0.2c0.4,0.4,0.7,0.8,1,1.3
			c0.9,1.4,1.9,3.2,2.4,5.1c0.2,0.8,0.3,1.6,0.2,2.3c0,0.3-0.1,0.5-0.1,0.8v0.1v0.1l0,0c-1.1,0.5-2.3,0.8-3.6,0.9
			c0.5-0.1,1-0.3,1.5-0.5c0.1-0.1,0.3-0.1,0.5-0.2c0.3-0.1,0.6-0.2,0.8-0.3c0.1,0,0.1-0.1,0.1-0.3c0.1-0.3,0.1-0.6,0.1-0.9v-0.1
			c0-0.1,0-0.2,0-0.2h-0.1h-0.1c-0.1,0-0.2,0.1-0.3,0.1l-0.2,0.1c-0.7,0.2-1.4,0.3-2,0.4c-1.9,0.2-4,0.2-5.9-0.2
			c-0.7-0.1-1.3-0.3-1.9-0.4c-0.4-0.4-0.9-0.8-1.2-1.2c1.9,0.8,4.1,1.2,6.5,1.2c0.8,0,1.6,0,2.3-0.1c0.7-0.1,1.4-0.2,2.2-0.4
			c0.1,0,0.2,0,0.2,0c0.2,0,0.5-0.1,0.6-0.2c0,0,0-0.1,0-0.5V299c-0.2-0.7-0.4-1.4-0.7-2c0,0,0-0.1-0.1-0.1c0-0.1-0.1-0.4-0.2-0.4
			h-0.1h-0.1l0,0c-0.2,0.1-0.4,0.1-0.7,0.2c-0.7,0.2-1.5,0.4-2.4,0.5c-0.8,0.1-1.6,0.2-2.4,0.2c-1.7,0-3.2-0.2-4.6-0.7
			c-0.9-0.3-1.7-0.6-2.4-1C-287.4,295.2-287.4,294.8-287.5,294.4z"/>
	</g>
</g>
<g>
	<path class="st9" d="M-275.9,229.4c1.2,0,2.2-1,2.2-2.2s-1-2.2-2.2-2.2s-2.2,1-2.2,2.2S-277.1,229.4-275.9,229.4z"/>
	<path class="st9" d="M-280.9,239.9l-0.4,2.7c0,0-1,2.4-1.7,3.8c-0.5,1.1-0.8,1.8-0.4,2c0.6,0.3,1.3-0.4,2.1-1.6
		c1.3-2,2-3.1,2.2-3.5l0.4-1.3C-278.7,242.1-280.6,240.8-280.9,239.9z"/>
	<path class="st9" d="M-268.8,232.1c-0.2-0.5-0.6-0.4-1.1-0.3v-0.9c0-0.3-0.2-0.5-0.5-0.5s-0.5,0.2-0.5,0.5v1.4l-1.7,0.8l-2.9-2.1
		c-0.1-0.1-0.2-0.1-0.3-0.1l0,0l-2.3-0.6c-0.3-0.1-0.7,0.2-0.8,0.8l-1.6,5.6c-0.2,1.2-0.2,2,0.8,3c0,0,0,0,0,0.1l3.9,3.3l-0.4,4.2
		c0,1,0,1.6,0.7,1.7c0.6,0.1,0.9-1.2,0.9-1.5c0,0,0.8-4,0.9-4.6s0.1-1.2-0.3-1.7l-3-3l1.2-4.7l2.3,1.6c0.3,0.2,0.7,0.3,1.1,0.2
		c0,0,0.8-0.5,1.6-1v14.3c0,0.3,0.2,0.5,0.5,0.5s0.5-0.2,0.5-0.5v-15h0.1C-269.2,233-268.5,232.5-268.8,232.1z"/>
	<path class="st9" d="M-281.6,235.8c0.2-0.7,1.6-4.9,1.6-4.9c0.5-1.8-1.9-1.4-3-0.3c-1.1,1.1-2.3,2.9-2.5,4.2
		c-0.2,1.2,0.9,1.6,1.9,1.9C-282.5,237-281.8,236.5-281.6,235.8z"/>
</g>
<g id="Page-1_5_">
	<g id="icon-34-award_5_">
		<path id="award_5_" class="st10" d="M-277.5,347.5l-3.3,8.5l-1.4-3.2l-3.2,1.4l3.2-8.4C-280.8,346.8-279.1,347.4-277.5,347.5
			L-277.5,347.5L-277.5,347.5z M-272.1,345.8l3.2,8.4l-3.2-1.4l-1.4,3.2l-3.3-8.5C-275,347.4-273.5,346.8-272.1,345.8L-272.1,345.8
			L-272.1,345.8z M-277,346.7c4,0,7.3-3.3,7.3-7.3s-3.3-7.3-7.3-7.3s-7.3,3.3-7.3,7.3C-284.5,343.4-281.1,346.7-277,346.7
			L-277,346.7z M-277,341.5l-2.8,1.9l1.2-3.3l-2.4-1.6h2.8l1.2-3.3l1.2,3.3h2.8l-2.4,1.6l1.2,3.3L-277,341.5L-277,341.5z"/>
	</g>
</g>
<path class="st4" d="M-268.6,309.5c-2.3-2.3-5.3-3.5-8.5-3.5s-6.2,1.2-8.5,3.5s-3.5,5.3-3.5,8.5s1.2,6.2,3.5,8.5s5.3,3.5,8.5,3.5
	s6.2-1.2,8.5-3.5s3.5-5.3,3.5-8.5S-266.4,311.8-268.6,309.5z M-276.9,310.1l3.5-1l3.5,2.6l0.1,3.6l-3.5,1.5l-3.7-2.7
	C-276.9,314.1-276.9,310.1-276.9,310.1z M-281.4,317.3l1.4,4.2l-2.3,2.4l-3.5-1.7l-0.9-3.6l1.9-2.8L-281.4,317.3z M-284.5,315.3
	l0.1-3.8l3.5-2.5l3.6,1v4l-3.7,2.7L-284.5,315.3z M-279.8,322.1h5.3V322l2.2,2.3l-1.8,2.9h-6.1l-1.7-2.8L-279.8,322.1z
	 M-271.9,323.9l-2.4-2.5l1.4-4.2l3.4-1.5l2,2.9l-1,3.6L-271.9,323.9z M-267.9,311.8l-1.8-0.7l-3.5-2.6l-1.1-1.3
	C-271.5,307.9-269.4,309.5-267.9,311.8z M-280,307.2l-1.1,1.3l-3.8,2.7l-1.6,0.6C-284.9,309.5-282.8,307.9-280,307.2z M-288.4,317.3
	l1.1,1.8l0.9,3.6l-0.1,1.7c-1.3-1.8-2-4-2-6.4C-288.4,317.8-288.4,317.5-288.4,317.3z M-281.9,328.2l2.1-0.4h5.4l2.1,0.4
	c-1.5,0.7-3.1,1.1-4.8,1.1C-278.9,329.2-280.4,328.8-281.9,328.2z M-267.9,324.4l-0.1-1.9l1-3.6l1.1-1.6c0,0.2,0,0.5,0,0.7
	C-265.9,320.4-266.6,322.5-267.9,324.4z"/>
<polygon class="st11" points="-277.1,359 -274.1,368.2 -264.5,368.2 -272.4,373.8 -269.4,383 -277.1,377.3 -285,383 -282,373.8 
	-289.8,368.2 -280.1,368.2 "/>
<path class="st12" d="M-277.4,593c-7.4,0-13.5,6-13.5,13.5s6,13.5,13.5,13.5s13.5-6,13.5-13.5S-270,593-277.4,593z M-273.8,606.4
	h-2.4c0,3.7,0,8.3,0,8.3h-3.5c0,0,0-4.6,0-8.3h-1.6v-3h1.6v-1.9c0-1.4,0.7-3.5,3.5-3.5h2.6v2.9c0,0-1.5,0-1.9,0
	c-0.3,0-0.7,0.2-0.7,0.8v1.8h2.6L-273.8,606.4z"/>
</svg>
